<svg id="Capa_1" enable-background="new 0 0 511.999 511.999" height="512" viewBox="0 0 511.999 511.999" width="512" xmlns="http://www.w3.org/2000/svg"><g><g><g><path d="m495.801 176.99c0-19.935 13.812-42.483 6.623-59.818-7.452-17.97-33.437-24.067-46.979-37.61-13.542-13.542-19.639-39.527-37.61-46.979-17.335-7.188-39.883 6.624-59.817 6.624-19.935 0-42.483-13.812-59.818-6.623-17.97 7.452-24.067 33.437-37.61 46.979-13.542 13.542-39.527 19.639-46.979 37.61-7.188 17.335 6.624 39.883 6.624 59.817 0 19.935-13.812 42.483-6.623 59.818 7.452 17.97 33.437 24.067 46.979 37.61 13.542 13.542 19.639 39.527 37.61 46.979 17.335 7.188 39.883-6.624 59.817-6.624 19.935 0 42.483 13.812 59.818 6.624 17.97-7.452 24.067-33.437 37.61-46.979 13.542-13.542 39.527-19.639 46.979-37.61 7.188-17.336-6.624-39.884-6.624-59.818z" fill="#c6865c"/><path d="m293.084 117.172c-3.235 17.338 2.976 39.888 2.976 59.823s-6.211 42.476-2.976 59.814c3.355 17.976 15.037 24.066 21.127 37.615 5.767 12.828 8.53 36.839 15.684 45.655-11.266 2.921-22.255 5.24-31.7 1.322-17.966-7.449-24.066-33.438-37.606-46.977-13.539-13.549-39.528-19.639-46.977-37.615-7.19-17.338 6.617-39.879 6.617-59.814s-13.807-42.485-6.617-59.823c7.449-17.966 33.437-24.066 46.977-37.606 13.539-13.54 19.639-39.528 37.606-46.977 9.445-3.919 20.434-1.599 31.709 1.312-7.163 8.808-9.917 32.827-15.693 45.665-6.09 13.54-17.772 19.64-21.127 37.606z" fill="#b16e3d"/><path d="m483.149 359.644c8.718-22.585 17.886-53.925 19.663-88.912.406-7.993-3.875-15.477-10.953-19.21-17.641-9.304-57.905-24.348-133.839-24.348s-116.198 15.044-133.839 24.348c-7.079 3.734-11.359 11.218-10.953 19.21 1.776 34.987 10.944 66.327 19.663 88.912 8.455 21.901 29.464 36.376 52.941 36.376h144.379c23.473 0 44.483-14.475 52.938-36.376z" fill="#e7a561"/><g><path d="m344.591 113.237-15.123 10.988c-3.43 2.492-4.865 6.908-3.555 10.94l5.777 17.779c1.31 4.032 5.067 6.761 9.306 6.761h18.694c4.239 0 7.996-2.73 9.306-6.761l5.777-17.779c1.31-4.032-.125-8.448-3.555-10.94l-15.124-10.988c-3.43-2.491-8.073-2.491-11.503 0z" fill="#f9efda"/><path d="m335.308 135.168 5.776 17.782c1.312 4.03 5.074 6.756 9.307 6.756h-9.39c-4.242 0-8.004-2.726-9.307-6.756l-5.776-17.782c-1.312-4.029.12-8.447 3.549-10.942l15.129-10.989c3.087-2.236 7.163-2.458 10.443-.656-.36.185-.712.407-1.054.656l-15.12 10.989c-3.427 2.495-4.86 6.912-3.557 10.942z" fill="#f6e4c1"/></g><g><path d="m420.586 71.009-4.342 18.182c-.985 4.123.797 8.411 4.415 10.622l15.951 9.749c3.617 2.211 8.246 1.841 11.466-.916l14.2-12.157c3.22-2.757 4.299-7.274 2.672-11.188l-7.174-17.262c-1.627-3.914-5.589-6.336-9.815-5.999l-18.634 1.489c-4.226.336-7.754 3.356-8.739 7.48z" fill="#f9efda"/><path d="m427.797 93.704 15.952 9.751c3.618 2.208 8.248 1.832 11.463-.921l-7.133 6.107c-3.222 2.759-7.853 3.134-11.463.921l-15.952-9.751c-3.617-2.207-5.402-6.495-4.42-10.62l4.346-18.187c.89-3.706 3.842-6.526 7.506-7.29-.154.375-.276.772-.374 1.184l-4.339 18.181c-.981 4.125.804 8.412 4.414 10.625z" fill="#f6e4c1"/></g><g><path d="m288.316 23.727-5.544 17.853c-1.257 4.048.235 8.446 3.697 10.892l15.266 10.789c3.462 2.447 8.105 2.386 11.502-.15l14.979-11.185c3.397-2.536 4.774-6.971 3.411-10.985l-6.009-17.702c-1.363-4.014-5.155-6.694-9.394-6.639l-18.692.244c-4.238.057-7.959 2.835-9.216 6.883z" fill="#f9efda"/><path d="m293.999 46.853 15.267 10.792c3.463 2.444 8.108 2.378 11.499-.155l-7.524 5.618c-3.399 2.538-8.044 2.604-11.499.155l-15.267-10.792c-3.462-2.443-4.958-6.84-3.703-10.891l5.548-17.857c1.135-3.639 4.268-6.255 7.975-6.774-.178.364-.327.752-.452 1.156l-5.54 17.851c-1.255 4.051.241 8.448 3.696 10.897z" fill="#f6e4c1"/></g></g><g><path d="m291.763 276.368c0-19.935 13.812-42.483 6.624-59.818-7.452-17.97-33.437-24.067-46.979-37.61-13.542-13.542-19.639-39.527-37.61-46.979-17.335-7.188-39.883 6.624-59.817 6.624-19.935 0-42.483-13.812-59.818-6.623-17.97 7.452-24.067 33.437-37.61 46.979-13.542 13.542-39.527 19.639-46.979 37.61-7.188 17.335 6.624 39.883 6.624 59.817s-13.812 42.483-6.623 59.818c7.452 17.97 33.437 24.067 46.979 37.61 13.542 13.542 19.639 39.527 37.61 46.979 17.335 7.188 39.883-6.624 59.817-6.624 19.935 0 42.483 13.812 59.818 6.624 17.97-7.452 24.067-33.437 37.61-46.979 13.542-13.542 39.527-19.639 46.979-37.61 7.186-17.335-6.625-39.883-6.625-59.818z" fill="#c6865c"/><path d="m89.045 216.551c-3.235 17.338 2.976 39.888 2.976 59.823s-6.211 42.476-2.976 59.814c3.355 17.976 15.037 24.066 21.127 37.615 5.767 12.828 8.53 36.839 15.684 45.655-11.266 2.921-22.255 5.24-31.7 1.322-17.966-7.449-24.066-33.438-37.606-46.977-13.54-13.549-39.528-19.639-46.977-37.615-7.19-17.338 6.617-39.879 6.617-59.814s-13.807-42.485-6.617-59.823c7.449-17.966 33.437-24.066 46.977-37.606 13.539-13.54 19.639-39.528 37.606-46.977 9.445-3.919 20.434-1.599 31.709 1.312-7.163 8.808-9.917 32.827-15.693 45.665-6.09 13.54-17.772 19.64-21.127 37.606z" fill="#b16e3d"/><path d="m279.11 459.023c8.718-22.585 17.886-53.925 19.663-88.912.406-7.993-3.875-15.477-10.953-19.21-17.641-9.304-57.905-24.348-133.839-24.348s-116.199 15.043-133.841 24.348c-7.079 3.734-11.359 11.218-10.953 19.21 1.776 34.987 10.944 66.327 19.663 88.912 8.455 21.901 29.464 36.376 52.941 36.376h144.379c23.476 0 44.485-14.475 52.94-36.376z" fill="#ffe07d"/><path d="m77.49 477.226c1.124 6.572 2.609 12.663 4.395 18.172h-.1c-23.48 0-44.482-14.469-52.941-36.374-8.72-22.587-17.881-53.924-19.657-88.913-.411-7.987 3.873-15.473 10.947-19.206 9.272-4.887 24.785-11.359 48.445-16.406-2.117 5.439-3.281 12.623-3.111 20.129 1.085 48.244 6.694 91.462 12.022 122.598z" fill="#ffd064"/><g><path d="m97.448 181.246-15.123 10.988c-3.429 2.492-4.865 6.908-3.555 10.94l5.777 17.779c1.31 4.032 5.067 6.761 9.306 6.761h18.694c4.239 0 7.996-2.73 9.306-6.761l5.777-17.779c1.31-4.032-.125-8.448-3.555-10.94l-15.123-10.988c-3.43-2.492-8.074-2.492-11.504 0z" fill="#f9efda"/><path d="m88.166 203.176 5.776 17.782c1.312 4.03 5.074 6.756 9.307 6.756h-9.39c-4.242 0-8.004-2.726-9.307-6.756l-5.776-17.782c-1.312-4.029.12-8.447 3.549-10.942l15.129-10.989c3.087-2.236 7.163-2.458 10.443-.656-.36.185-.712.407-1.054.656l-15.12 10.989c-3.428 2.495-4.86 6.913-3.557 10.942z" fill="#f6e4c1"/></g><g><path d="m186.037 217.819-15.123 10.988c-3.429 2.492-4.865 6.908-3.555 10.94l5.777 17.779c1.31 4.032 5.067 6.761 9.306 6.761h18.694c4.239 0 7.996-2.73 9.306-6.761l5.777-17.779c1.31-4.032-.125-8.448-3.555-10.94l-15.123-10.988c-3.43-2.491-8.074-2.491-11.504 0z" fill="#f9efda"/><path d="m176.755 239.749 5.776 17.782c1.312 4.03 5.074 6.756 9.307 6.756h-9.39c-4.242 0-8.004-2.726-9.307-6.756l-5.776-17.782c-1.312-4.029.12-8.447 3.549-10.942l15.129-10.989c3.087-2.236 7.163-2.458 10.443-.656-.36.185-.712.407-1.054.656l-15.12 10.989c-3.428 2.495-4.86 6.913-3.557 10.942z" fill="#f6e4c1"/></g><g><path d="m154.245 122.932-5.544 17.853c-1.257 4.048.236 8.446 3.697 10.892l15.266 10.789c3.462 2.447 8.105 2.386 11.502-.15l14.979-11.185c3.397-2.536 4.774-6.971 3.411-10.985l-6.009-17.702c-1.363-4.014-5.155-6.694-9.394-6.639l-18.692.244c-4.238.056-7.959 2.834-9.216 6.883z" fill="#f9efda"/><path d="m159.928 146.057 15.267 10.792c3.463 2.444 8.108 2.378 11.499-.155l-7.524 5.618c-3.399 2.538-8.044 2.604-11.499.155l-15.267-10.792c-3.462-2.443-4.958-6.84-3.703-10.891l5.548-17.857c1.135-3.639 4.268-6.255 7.975-6.774-.178.364-.327.752-.452 1.156l-5.54 17.851c-1.255 4.052.241 8.448 3.696 10.897z" fill="#f6e4c1"/></g></g></g><g><path d="m507.458 199.795c-2.143-8.118-4.166-15.787-4.166-22.803 0-7.01 2.023-14.679 4.165-22.798 3.524-13.356 7.167-27.167 1.886-39.896-5.491-13.251-18.091-20.507-30.276-27.525-2.484-1.431-4.864-2.802-7.147-4.201-.02-.048-.034-.097-.054-.146l-7.174-17.262c-2.872-6.911-9.811-11.165-17.258-10.599-6.781-11.748-13.98-23.621-26.729-28.899-12.724-5.283-26.531-1.643-39.882 1.877-8.12 2.141-15.789 4.162-22.805 4.162-7.022 0-14.7-2.024-22.829-4.167-.072-.019-.143-.037-.215-.056l-2.256-6.647c-2.39-7.04-8.946-11.728-16.362-11.728-.077 0-.154 0-.231.001l-18.691.244c-7.51.098-14.054 4.983-16.282 12.157l-5.543 17.851c-.512 1.649-.756 3.327-.772 4.986-2.52 3.78-4.827 7.751-7.058 11.624-4.049 7.032-7.873 13.675-12.495 18.296-4.621 4.621-11.265 8.446-18.298 12.496-12.193 7.02-24.801 14.279-30.294 27.529-1.066 2.568-1.806 5.275-2.227 8.163-1.601-.07-3.252-.069-4.981.033l-.833-2.453c-2.415-7.113-9.051-11.788-16.593-11.727l-18.692.244c-7.51.099-14.052 4.984-16.28 12.157l-2.893 9.316c-4.176-.788-8.502-1.921-12.999-3.106-13.356-3.521-27.168-7.161-39.887-1.877-13.273 5.492-20.538 18.11-27.564 30.312-4.049 7.031-7.872 13.672-12.49 18.293-4.619 4.619-11.263 8.443-18.297 12.492-12.193 7.018-24.801 14.274-30.307 27.529-5.269 12.717-1.631 26.511 1.888 39.851.838 3.179 1.706 6.466 2.412 9.618.782 3.49 3.878 5.862 7.311 5.862.543 0 1.095-.059 1.646-.183 4.042-.905 6.584-4.916 5.679-8.958-.768-3.427-1.671-6.852-2.545-10.164-3.017-11.438-5.867-22.241-2.537-30.278 3.549-8.544 13.451-14.243 23.934-20.277 7.571-4.357 15.398-8.863 21.423-14.888 6.02-6.025 10.525-13.848 14.881-21.413 6.039-10.489 11.744-20.396 20.31-23.941 8.051-3.343 18.867-.493 30.318 2.526 4.4 1.16 8.894 2.343 13.427 3.227.282 5.16 2.865 10.035 7.276 13.152l15.266 10.79c3.002 2.122 6.49 3.179 9.976 3.179 3.636 0 7.268-1.151 10.341-3.445l14.978-11.184c6.018-4.495 8.44-12.293 6.025-19.405l-.088-.26c2.374.174 4.475.638 6.358 1.419 8.547 3.541 14.246 13.441 20.28 23.923 4.359 7.572 8.866 15.402 14.896 21.432 6.026 6.022 13.853 10.527 21.421 14.884 10.485 6.035 20.389 11.736 23.93 20.28 3.337 8.052.482 18.868-2.539 30.319-2.293 8.689-4.664 17.673-4.664 26.632 0 8.965 2.372 17.95 4.666 26.639 3.02 11.443 5.874 22.252 2.541 30.296-1.18 2.84-3.093 5.482-5.888 8.127-41.408-19.378-99.656-22.379-131.589-22.379s-90.184 3.001-131.592 22.381c-2.791-2.641-4.704-5.283-5.885-8.125-3.332-8.043-.482-18.84 2.535-30.271.874-3.31 1.777-6.732 2.545-10.156.906-4.042-1.636-8.052-5.678-8.959-4.044-.908-8.052 1.636-8.959 5.678-.706 3.149-1.573 6.433-2.411 9.61-3.519 13.334-7.159 27.121-1.886 39.849 1.567 3.768 3.847 7.281 6.858 10.617-5.261 5.496-8.202 13.005-7.804 20.814 1.885 37.131 12.001 70.105 20.155 91.229 9.507 24.627 33.593 41.174 59.935 41.174h144.375c26.342 0 50.428-16.547 59.935-41.174 5.633-14.591 12.2-34.838 16.345-58.202h127.752c20.372 0 39.736-9.822 51.797-26.275 2.449-3.34 1.726-8.033-1.615-10.483-3.34-2.448-8.034-1.727-10.483 1.615-6.271 8.553-15.118 14.76-25.03 17.875 6.626-25.207 18.142-76.658 20.676-137.502 10.096 3.295 17.562 6.646 22.799 9.407 4.488 2.371 7.225 7.16 6.972 12.198-1.196 23.589-5.982 48.081-14.224 72.795-1.311 3.929.812 8.176 4.742 9.487.787.263 1.587.387 2.373.387 3.14 0 6.066-1.987 7.114-5.129 8.672-26.002 13.709-51.835 14.975-76.784.391-7.805-2.553-15.312-7.817-20.81 3.016-3.342 5.296-6.856 6.858-10.617 5.285-12.729 1.642-26.533-1.881-39.882zm-317.799-54.669-14.978 11.184c-.796.594-1.875.608-2.686.036l-15.266-10.79c-.811-.573-1.158-1.595-.863-2.543l5.544-17.852c.294-.949 1.16-1.595 2.152-1.607l18.692-.244h.03c.98 0 1.847.62 2.163 1.551l6.008 17.702c.32.938 0 1.969-.796 2.563zm261.182-74.204 7.174 17.262c.381.917.13 1.967-.624 2.613l-14.2 12.157c-.754.645-1.83.732-2.678.214l-15.95-9.748c-.847-.518-1.261-1.515-1.03-2.48l4.342-18.181c.231-.966 1.051-1.668 2.04-1.747l18.634-1.489c.987-.075 1.911.483 2.292 1.399zm-160.908-27.111 5.543-17.852c.295-.948 1.16-1.594 2.153-1.607l18.692-.244h.03c.98 0 1.847.62 2.163 1.55l6.008 17.702c.319.94-.001 1.971-.796 2.565l-14.978 11.184c-.795.594-1.875.607-2.685.035l-15.265-10.789c-.813-.573-1.159-1.595-.865-2.544zm-14.923 142.326c-7.034-4.049-13.678-7.873-18.3-12.492-4.625-4.625-8.451-11.271-12.501-18.307-6.572-11.416-13.354-23.194-25.072-29.158.185-2.279.651-4.31 1.41-6.138 3.541-8.543 13.441-14.243 23.923-20.278 7.569-4.358 15.396-8.864 21.42-14.888s10.53-13.85 14.888-21.419c.808-1.404 1.603-2.773 2.395-4.123l14.231 10.058c3.003 2.122 6.491 3.18 9.977 3.18 3.635 0 7.268-1.151 10.34-3.446l14.979-11.183c4.457-3.328 6.934-8.468 6.943-13.799 6.068 1.44 12.226 2.562 18.374 2.562 8.96 0 17.942-2.368 26.628-4.658 11.448-3.018 22.26-5.869 30.315-2.525 6.439 2.665 11.262 8.949 15.832 16.37l-2.071.166c-7.487.598-13.689 5.908-15.435 13.214l-4.342 18.181c-1.745 7.306 1.389 14.847 7.798 18.764l15.95 9.749c2.792 1.706 5.913 2.546 9.018 2.546 4.021 0 8.016-1.408 11.235-4.164l14.201-12.157c1.142-.978 2.124-2.083 2.953-3.274.494.285.991.573 1.481.855 10.473 6.032 20.366 11.729 23.906 20.272 3.342 8.053.488 18.871-2.534 30.324-2.291 8.686-4.661 17.668-4.661 26.624 0 8.962 2.371 17.944 4.662 26.63 3.02 11.445 5.873 22.256 2.534 30.304-1.178 2.835-3.09 5.477-5.884 8.127-41.423-19.382-99.664-22.383-131.59-22.383-17.704 0-34.627.833-50.451 2.465-.396-2.86-1.102-5.688-2.251-8.462-5.492-13.256-18.105-20.516-30.301-27.537zm113.28 49.408c-.51 69.794-5.791 128.738-8.294 152.97h-43.961c-2.504-24.234-7.785-83.184-8.294-152.966 9.761-.581 19.872-.879 30.275-.879 10.835 0 20.898.318 30.274.875zm-163.596 252.346h-33.653c2.574-25.258 7.66-83.304 8.208-151.824 19.029 1.796 34.687 4.625 47.42 7.809-2.349 66.569-15.901 122.115-21.975 144.015zm-40.436-152.967c-.51 69.779-5.791 128.731-8.294 152.967h-43.961c-2.504-24.238-7.786-83.199-8.295-152.967 9.376-.557 19.439-.874 30.275-.874 10.836-.001 20.899.317 30.275.874zm-122.961 8.952c12.733-3.184 28.391-6.013 47.42-7.809.547 68.509 5.634 126.563 8.209 151.824h-33.653c-6.074-21.9-19.626-77.446-21.976-144.015zm-25.443 112.438c-7.759-20.101-17.384-51.44-19.168-86.588-.256-5.042 2.476-9.83 6.962-12.195 5.237-2.762 12.704-6.114 22.802-9.41 2.536 60.902 14.071 112.392 20.694 137.573-14.13-4.36-25.719-14.948-31.29-29.38zm255.427-86.588c-1.784 35.148-11.408 66.487-19.168 86.588-5.571 14.432-17.16 25.02-31.291 29.38 6.623-25.181 18.158-76.671 20.694-137.573 10.098 3.296 17.565 6.648 22.802 9.41 4.486 2.365 7.219 7.153 6.963 12.195zm7.173-20.055c3.015-3.339 5.295-6.853 6.861-10.62 5.274-12.727 1.63-26.527-1.893-39.873-2.144-8.121-4.169-15.792-4.169-22.811 0-7.012 2.024-14.684 4.168-22.804 1.423-5.394 2.856-10.862 3.723-16.303 1.85-.2 3.723-.383 5.605-.56.548 68.519 5.634 126.56 8.208 151.815h-16.263c.715-5.874 1.255-11.892 1.566-18.028.397-7.81-2.544-15.32-7.806-20.816zm130.272 38.844h-33.652c2.574-25.255 7.66-83.293 8.208-151.826 19.028 1.796 34.686 4.626 47.42 7.811-2.35 66.567-15.902 122.114-21.976 144.015z"/><path d="m324.554 155.264c2.321 7.144 8.926 11.944 16.438 11.944h18.693c7.511 0 14.117-4.8 16.438-11.943l5.776-17.778c2.322-7.143-.202-14.909-6.279-19.324l-15.124-10.989c-6.077-4.414-14.242-4.413-20.318 0l-15.123 10.987c-6.077 4.415-8.6 12.181-6.279 19.325zm9.32-24.967 15.123-10.988c.803-.583 1.883-.583 2.685 0l15.123 10.988c.803.583 1.137 1.61.83 2.554l-5.776 17.778c-.307.944-1.18 1.579-2.173 1.579h-18.693c-.993 0-1.866-.634-2.173-1.579l-5.777-17.778c-.307-.943.027-1.97.831-2.554z"/><path d="m434.434 161.261c4.142 0 7.5-3.358 7.5-7.5v-.502c0-4.142-3.358-7.5-7.5-7.5s-7.5 3.358-7.5 7.5v.502c0 4.142 3.358 7.5 7.5 7.5z"/><path d="m375.247 86.152c4.142 0 7.5-3.358 7.5-7.5v-.502c0-4.142-3.358-7.5-7.5-7.5s-7.5 3.358-7.5 7.5v.502c0 4.143 3.358 7.5 7.5 7.5z"/><path d="m134.766 205.493c2.322-7.143-.202-14.909-6.279-19.324l-15.123-10.988c-6.076-4.413-14.241-4.414-20.318 0l-15.123 10.987c-6.077 4.415-8.6 12.181-6.279 19.325l5.776 17.777c2.321 7.144 8.926 11.944 16.438 11.944h18.693c7.511 0 14.117-4.8 16.438-11.943zm-14.265-4.635-5.776 17.778c-.307.944-1.18 1.579-2.173 1.579h-18.693c-.993 0-1.866-.634-2.173-1.579l-5.777-17.778c-.307-.944.027-1.97.831-2.554l15.123-10.988c.803-.583 1.882-.583 2.685 0l15.123 10.988c.803.583 1.137 1.609.83 2.554z"/><path d="m181.632 211.753-15.123 10.987c-6.077 4.415-8.6 12.181-6.279 19.325l5.776 17.778c2.321 7.144 8.927 11.943 16.438 11.943h18.693c7.511 0 14.117-4.8 16.438-11.943l5.776-17.778c2.321-7.144-.202-14.91-6.279-19.325l-15.123-10.988c-6.076-4.414-14.242-4.413-20.317.001zm11.502 12.135 15.123 10.988c.803.583 1.137 1.61.83 2.555l-5.776 17.778c-.307.944-1.18 1.579-2.173 1.579h-18.693c-.993 0-1.866-.634-2.173-1.579l-5.777-17.778c-.307-.944.027-1.971.83-2.554l15.123-10.987c.401-.291.872-.437 1.343-.437s.942.143 1.343.435z"/><path d="m113.218 275.866v.502c0 4.142 3.358 7.5 7.5 7.5s7.5-3.358 7.5-7.5v-.502c0-4.142-3.358-7.5-7.5-7.5s-7.5 3.358-7.5 7.5z"/><path d="m209.274 191.425v-.502c0-4.142-3.358-7.5-7.5-7.5s-7.5 3.358-7.5 7.5v.502c0 4.142 3.358 7.5 7.5 7.5 4.142-.001 7.5-3.359 7.5-7.5z"/><path d="m194.274 294.564v.502c0 4.142 3.358 7.5 7.5 7.5s7.5-3.358 7.5-7.5v-.502c0-4.142-3.358-7.5-7.5-7.5s-7.5 3.358-7.5 7.5z"/><path d="m64.692 264.537v-.501c0-4.142-3.358-7.5-7.5-7.5s-7.5 3.358-7.5 7.5v.501c0 4.142 3.358 7.5 7.5 7.5s7.5-3.358 7.5-7.5z"/></g></g></svg>