<svg id="Layer_1" enable-background="new 0 0 511.432 511.432" height="512" viewBox="0 0 511.432 511.432" width="512" xmlns="http://www.w3.org/2000/svg"><g><g><path d="m409.798 26.931c-13.507 0-25.12 8.988-30.249 21.865-5.129-12.877-16.742-21.865-30.249-21.865-18.256 0-33.055 16.417-33.055 36.668 0 46.354 63.304 71.952 63.304 71.952s62.681-25.944 63.304-71.952c.275-20.249-14.799-36.668-33.055-36.668z" fill="#ff5492"/><g><path d="m53.487 372.644c-6.639 0-12.348 4.418-14.869 10.748-2.521-6.33-8.229-10.748-14.869-10.748-8.974 0-16.249 8.07-16.249 18.024 0 22.786 31.118 35.369 31.118 35.369s30.811-12.753 31.118-35.369c.134-9.953-7.276-18.024-16.249-18.024z" fill="#ff91c1"/><path d="m152.682 425.188c-9.792 0-18.21 6.516-21.929 15.851-3.718-9.335-12.137-15.851-21.929-15.851-13.234 0-23.963 11.901-23.963 26.582 0 33.604 45.892 52.161 45.892 52.161s45.44-18.808 45.892-52.161c.199-14.679-10.729-26.582-23.963-26.582z" fill="#ff5492"/></g><g><g><g><path d="m42.861 233.246 128.705-30 124.078 30-23.925 86.735c-3.589 13.01-15.424 22.023-28.92 22.023h-147.093c-13.496 0-25.331-9.012-28.92-22.023z" fill="#e0efff"/><path d="m295.644 233.246c18.359 0 33.242-14.883 33.242-33.242s-14.883-33.242-33.242-33.242c-.077 0-.152.005-.228.006-.23-69.389-56.546-125.569-125.988-125.569-69.443 0-125.759 56.18-125.988 125.569-.076 0-.152-.006-.228-.006-18.359 0-33.242 14.883-33.242 33.242s14.883 33.242 33.242 33.242z" fill="#ba7652"/><path d="m295.644 166.762c-.077 0-.152.005-.228.006-.23-69.389-56.546-125.569-125.988-125.569-6.807 0-13.486.547-20 1.587 59.942 9.562 105.781 61.396 105.988 123.982.076 0 .152-.006.228-.006 18.359 0 33.242 14.883 33.242 33.242s-14.883 33.242-33.242 33.242h40c18.359 0 33.242-14.883 33.242-33.242s-14.883-33.242-33.242-33.242z" fill="#b06a45"/></g><g><g><path d="m99.332 13.188c-5.742-2.927-13.588.469-19.822-.513-6.296-.992-12.717-6.619-19.013-5.627-6.234.982-10.607 8.287-16.349 11.214-5.54 2.824-14.045 2.002-18.68 6.637s-3.813 13.14-6.637 18.68c-2.927 5.742-10.232 10.115-11.214 16.348-.992 6.296 4.635 12.717 5.627 19.013.982 6.233-2.414 14.08.513 19.822 2.824 5.54 11.105 7.43 15.74 12.065s6.525 12.916 12.065 15.74c5.742 2.927 13.588-.469 19.822.513 6.296.992 12.717 6.619 19.013 5.627.235-.037.461-.1.691-.154 8.414-24.36 27.676-43.621 52.035-52.035.054-.229.117-.456.154-.69.992-6.296-4.635-12.718-5.627-19.013-.982-6.233 2.414-14.08-.513-19.822-2.824-5.54-11.105-7.43-15.74-12.065-4.636-4.635-6.525-12.916-12.065-15.74z" fill="#fff0ca"/></g><path d="m127.649 60.814c-.982-6.234 2.414-14.08-.513-19.822-2.824-5.54-11.105-7.43-15.74-12.065s-6.525-12.916-12.065-15.74c-5.742-2.927-13.588.469-19.822-.513-6.296-.992-12.717-6.619-19.013-5.627-3.153.497-5.829 2.612-8.448 4.959 2.596-.13 5.093.065 7.283 1.181 5.54 2.824 7.43 11.105 12.065 15.74s12.916 6.525 15.74 12.065c2.927 5.742-.469 13.589.513 19.822.992 6.296 6.619 12.718 5.627 19.013-.037.234-.1.461-.154.69-22.543 7.786-40.712 24.867-49.967 46.676 5.544 1.713 12.552-1.008 18.227-.113 6.296.992 12.718 6.619 19.013 5.627.234-.037.461-.1.691-.154 8.414-24.36 27.676-43.621 52.035-52.035.054-.229.117-.456.154-.69.993-6.296-4.634-12.718-5.626-19.014z" fill="#fee9ad"/></g></g><g><g><path d="m469.139 395.173-126.581-30-126.201 30 23.925 86.735c3.589 13.01 15.424 22.023 28.92 22.023h147.092c13.496 0 25.331-9.012 28.92-22.023z" fill="#e0efff"/><path d="m216.356 395.173c-18.359 0-33.242-14.883-33.242-33.242s14.883-33.242 33.242-33.242c.077 0 .152.005.228.006.23-69.389 56.546-125.569 125.988-125.569 69.443 0 125.759 56.18 125.988 125.569.076 0 .152-.006.228-.006 18.359 0 33.242 14.883 33.242 33.242s-14.883 33.242-33.242 33.242z" fill="#ff91c1"/><path d="m468.79 328.689c-.077 0-.152.005-.228.006-.23-69.389-56.546-125.569-125.989-125.569-6.807 0-13.485.547-20 1.587 59.942 9.562 105.781 61.396 105.988 123.982.076 0 .152-.006.228-.006 18.359 0 33.242 14.883 33.242 33.242s-14.883 33.242-33.242 33.242h40c18.359 0 33.242-14.883 33.242-33.242s-14.882-33.242-33.241-33.242z" fill="#ff7db6"/><path d="m429.139 395.173-23.925 86.735c-3.589 13.01-15.424 22.023-28.92 22.023h40c13.496 0 25.331-9.012 28.92-22.023l23.925-86.735z" fill="#d4e8ff"/></g><g><g><path d="m412.668 175.115c5.742-2.927 13.588.469 19.822-.513 6.296-.992 12.717-6.619 19.013-5.627 6.233.982 10.607 8.288 16.348 11.214 5.54 2.824 14.045 2.002 18.68 6.637s3.813 13.14 6.637 18.68c2.927 5.742 10.232 10.115 11.215 16.348.992 6.296-4.635 12.717-5.627 19.013-.982 6.233 2.414 14.08-.513 19.822-2.824 5.54-11.105 7.43-15.74 12.065s-6.525 12.916-12.065 15.74c-5.742 2.927-13.588-.469-19.822.513-6.296.992-12.717 6.619-19.013 5.627-.235-.037-.461-.1-.691-.154-8.414-24.36-27.676-43.621-52.035-52.035-.054-.229-.117-.456-.154-.69-.992-6.296 4.635-12.718 5.627-19.013.982-6.233-2.414-14.08.513-19.822 2.824-5.54 11.105-7.43 15.74-12.065 4.636-4.635 6.525-12.916 12.065-15.74z" fill="#fff0ca"/></g><path d="m498.757 240.868c.992-6.296 6.619-12.718 5.627-19.013-.982-6.233-8.288-10.606-11.215-16.348-2.824-5.54-2.002-14.045-6.637-18.68s-13.14-3.813-18.68-6.637c-5.742-2.927-10.115-10.232-16.348-11.214-6.296-.992-12.718 4.635-19.013 5.627-3.856.608-8.329-.458-12.539-.668 2.559 2.294 5.063 4.809 7.901 6.256 5.54 2.824 14.045 2.002 18.68 6.637s3.813 13.14 6.637 18.68c2.927 5.742 10.233 10.115 11.215 16.348.992 6.296-4.635 12.717-5.627 19.013-.982 6.233 2.414 14.08-.513 19.822-2.824 5.54-11.105 7.43-15.74 12.065s-6.525 12.916-12.065 15.74c-.514.262-1.049.458-1.594.626.746 1.758 1.441 3.543 2.069 5.36.229.054.456.117.691.154 6.296.992 12.718-4.635 19.013-5.627 6.233-.982 14.08 2.414 19.822-.513 5.54-2.824 7.43-11.105 12.065-15.74s12.916-6.525 15.74-12.065c2.925-5.743-.472-13.59.511-19.823z" fill="#fee9ad"/></g></g></g></g><g><path d="m376.738 142.505c1.895.737 3.788.729 5.68-.023 2.746-1.136 67.253-28.413 67.935-78.781.165-12.188-4.483-23.986-12.754-32.37-7.57-7.674-17.443-11.9-27.8-11.9-11.756 0-22.686 5.514-30.249 14.729-7.563-9.214-18.493-14.729-30.249-14.729-22.362 0-40.556 19.813-40.556 44.168 0 50.827 65.217 77.783 67.993 78.906zm-27.437-108.074c9.996 0 19.134 6.728 23.281 17.14 2.46 6.174 11.475 6.174 13.936 0 4.147-10.412 13.285-17.14 23.281-17.14 6.312 0 12.393 2.64 17.122 7.434 5.471 5.545 8.545 13.43 8.434 21.632-.478 35.241-44.165 58.302-55.837 63.836-11.752-5.46-55.772-28.289-55.772-63.734-.001-16.083 11.463-29.168 25.555-29.168z"/><path d="m53.486 365.144c-5.53 0-10.739 2.048-14.868 5.608-4.13-3.559-9.339-5.608-14.869-5.608-13.096 0-23.749 11.45-23.749 25.524 0 27.526 34.344 41.73 35.806 42.322 1.895.737 3.788.729 5.68-.023 1.444-.598 35.38-14.955 35.749-42.197.177-13.165-10.026-25.626-23.749-25.626zm-3.779 45.573c-4.173 3.28-8.414 5.665-11.108 7.036-6.821-3.429-23.599-13.275-23.599-27.085 0-5.803 3.925-10.524 8.749-10.524 3.343 0 6.443 2.364 7.9 6.023 1.163 2.92 4.023 4.429 6.968 4.725 3.07 0 5.831-1.872 6.968-4.725 1.457-3.659 4.559-6.023 7.901-6.023 5.406 0 8.814 5.735 8.75 10.423-.093 6.911-4.309 13.691-12.529 20.15z"/><path d="m152.682 417.688c-8.355 0-16.167 3.565-21.929 9.625-5.762-6.059-13.573-9.625-21.929-9.625-17.349 0-31.463 15.289-31.463 34.082 0 38.222 48.515 58.279 50.58 59.114 1.895.737 3.788.729 5.68-.023 2.042-.845 50.01-21.132 50.522-58.989.238-17.432-13.33-34.184-31.461-34.184zm-3.499 66.549c-7.233 5.663-14.566 9.564-18.458 11.455-9.333-4.455-38.363-20.221-38.363-43.922 0-10.522 7.385-19.082 16.463-19.082 6.396 0 12.27 4.367 14.961 11.126 2.458 6.175 11.477 6.175 13.936 0 2.691-6.759 8.564-11.126 14.961-11.126 9.855 0 16.587 9.883 16.464 18.98-.156 11.36-6.873 22.318-19.964 32.569z"/><path d="m475.865 321.804c-.473-8.738-1.796-17.366-3.947-25.793 5.926-2.16 9.321-7.303 12.285-12.525 1.795-4.226 4.805-7.236 9.031-9.032 10.811-6.134 14.685-13.805 13.229-26.271-1.022-4.264-.386-8.267 1.906-12.011 5.16-11.307 3.9-19.84-4.563-29.096-3.331-2.839-5.173-6.431-5.526-10.775-2.478-12.393-8.724-18.726-21.226-21.225-4.344-.353-7.936-2.195-10.774-5.526-9.176-8.389-17.687-9.768-29.097-4.562-3.743 2.293-7.746 2.929-12.009 1.906-12.924-1.51-19.863 1.938-26.271 13.228-1.796 4.226-4.807 7.237-9.033 9.033-4.877 2.768-9.701 5.826-12.079 11.186-11.431-3.12-23.247-4.717-35.22-4.717-2.15 0-4.288.054-6.413.155-1.878-18.138-15.696-32.785-33.443-35.904-3.815-70.184-62.229-126.178-133.29-126.178-11.981 0-23.788 1.605-35.217 4.725-2.378-5.364-7.202-8.425-12.082-11.195-4.226-1.796-7.237-4.806-9.033-9.033-6.405-11.287-13.344-14.737-26.268-13.226-4.263 1.022-8.267.387-12.01-1.906-11.308-5.159-19.839-3.901-29.096 4.561-2.839 3.331-6.431 5.173-10.775 5.527-12.392 2.478-18.725 8.724-21.225 21.225-.354 4.344-2.196 7.936-5.526 10.775-8.387 9.174-9.769 17.688-4.563 29.096 2.294 3.743 2.929 7.747 1.906 12.011-1.442 12.349 2.325 20.083 13.229 26.271 4.226 1.795 7.236 4.806 9.031 9.032 2.965 5.225 6.361 10.367 12.29 12.528-2.151 8.427-3.479 17.056-3.952 25.797-14.795 2.679-27.642 13.811-32 28.558-6.928 24.017 9.117 47.223 32.858 51.561 4.31 15.138 18.546 68.713 21.772 80.403 3.267 11.981 15.549 29.04 29.576 29.04-.574 0 89.232 0 89.232 0-1.27 3.937-1.959 8.133-1.959 12.487 0 20.486 15.201 37.482 34.914 40.319l22.524 81.653c4.471 16.208 19.336 27.528 36.149 27.528h83.361c9.386 0 9.813-15 0-15h-83.361c-10.088 0-19.008-6.792-21.689-16.517l-21.307-77.241h233.086l-21.306 77.241c-2.683 9.725-11.603 16.517-21.69 16.517h-18.736c-9.386 0-9.813 15 0 15h18.736c16.813 0 31.679-11.32 36.149-27.528l22.536-81.699c19.539-2.991 34.553-19.911 34.553-40.273 0-20.055-14.563-36.77-33.667-40.13zm-84.323-108.117c-.766-6.566.007-8.235 5.733-11.486 6.614-3.754 10.922-8.06 14.675-14.675 3.251-5.727 4.92-6.499 11.486-5.733 7.384.862 13.212-.073 19.976-3.158 6.034-2.754 7.859-2.485 12.749 1.987 5.466 4.995 10.69 7.711 17.953 9.163 6.679 1.337 8.121 2.78 9.459 9.458 1.452 7.263 4.168 12.487 9.163 17.953 4.471 4.89 4.74 6.715 1.987 12.749-3.086 6.763-4.022 12.594-3.158 19.978.766 6.566-.007 8.234-5.733 11.485-6.615 3.753-10.921 8.06-14.675 14.675-1.291 2.274-2.896 5.104-4.124 5.73-1.376.702-4.556.331-7.361.003-9.343-1.089-15.326 1.668-23.75 4.776-9.19-21.936-27.22-39.963-49.154-49.155 3.164-8.568 5.865-14.421 4.774-23.75zm-356.742-108.163c-2.648-2.648-5.827-4.452-8.632-6.043-5.726-3.251-6.499-4.919-5.733-11.485.864-7.384-.072-13.214-3.158-19.978-2.753-6.033-2.483-7.859 1.987-12.749 4.995-5.466 7.711-10.69 9.163-17.953 1.337-6.678 2.779-8.123 9.458-9.458 7.263-1.453 12.488-4.168 17.954-9.164 4.892-4.471 6.714-4.74 12.749-1.987 6.764 3.086 12.592 4.019 19.977 3.159 6.566-.768 8.235.007 11.485 5.733 3.752 6.614 8.06 10.921 14.674 14.674 5.726 3.25 6.5 4.921 5.734 11.486-.365 3.123-.778 6.662-.218 10.221.77 4.885 3.317 8.972 4.99 13.528-21.936 9.236-39.937 27.198-49.152 49.155-5.788-2.135-10.891-5.267-17.277-5.267-2.26 0-4.453.256-6.472.492-6.794.794-8.147.149-11.486-5.733-1.592-2.804-3.396-5.983-6.043-8.631zm55.171 228.959c-9.267-1.685-14.718-10.629-16.741-18.047-3.211-11.642-16.466-62.105-20.281-75.708h.37c4.12 0 24.031.07 28.968 0 .066-.001.131.003.197 0 .02-.001.04.001.059 0 4.02-.193 7.195-3.532 7.138-7.588-.056-3.977-3.199-7.178-7.116-7.375l-35.899.029c-13.318-.985-24.642-5.49-28.121-19.833-3.781-15.587 7.931-31.697 24.431-31.697 3.937 0 7.951-3.333 7.965-7.471.037-10.955 1.567-21.75 4.538-32.166 6.166-.673 10.302 2.324 15.96 4.293-1.611 6.794-2.469 13.877-2.469 21.156 0 9.386 15 9.813 15 0 0-41.869 34.81-76.678 76.678-76.678 9.386 0 9.813-15 0-15-7.277 0-14.358.857-21.15 2.467-.67-1.924-1.486-3.718-2.233-5.356-1.007-2.205-1.957-4.288-2.205-5.862-.234-1.488.008-3.656.277-5.962 11.014-3.304 22.459-4.986 34.092-4.986 65.119 0 118.273 52.977 118.488 118.094.013 3.83 3.947 7.622 7.818 7.469 13.254.046 24.181 10.161 25.515 23.08-23.622 3.819-45.202 13.867-62.987 28.406-.072 0-.145 0-.217.001-.015 0-.028-.002-.043-.002-.012 0-.022 0-.034 0-15.101.067-116.761.046-127.339 0-.012 0-.022 0-.034 0-.004 0-.008.001-.012.001-.052 0-.105 0-.158-.001-.011 0-.021 0-.033 0-4.127 0-7.481 3.336-7.499 7.467-.018 4.142 3.325 7.515 7.468 7.533 10.61.046 107.209.076 112.245.059-19.328 21.848-31.638 50.041-33.321 80.998-9.04 1.589-17.06 6.171-23.004 12.68-11.498-.137-96.311-.001-96.311-.001zm378.818 53.19h-252.433c-14.194 0-25.742-11.548-25.742-25.742 0-14.164 11.498-25.693 25.65-25.742 3.875.123 7.807-3.602 7.82-7.469.216-65.117 53.369-118.094 118.488-118.094 11.626 0 23.078 1.695 34.093 5 .828 7.1-1.906 10.689-4.163 17.168-6.792-1.61-13.872-2.467-21.149-2.467-9.386 0-9.813 15 0 15 41.869 0 76.678 34.811 76.678 76.678 0 9.386 15 9.813 15 0 0-7.28-.857-14.363-2.469-21.157 5.662-1.972 9.797-4.967 15.968-4.292 2.97 10.417 4.494 21.214 4.53 32.165.013 3.852 3.945 7.605 7.819 7.469 14.152.049 25.651 11.578 25.651 25.742.002 14.193-11.546 25.741-25.741 25.741z"/></g></g></svg>