<svg height="511pt" viewBox="-4 0 511 511.99641" width="511pt" xmlns="http://www.w3.org/2000/svg"><g fill="#f7b36f"><path d="m472.207031 438.710938c-.851562 0-1.703125-.015626-2.554687-.042969l-3.0625-.097657.160156-3.058593c1.011719-19.34375.074219-36.761719-2.867188-53.246094l-.46875-2.628906 16.789063-5.074219c1.472656-.449219 3.144531-.957031 4.835937-1.652344l3.039063-1.242187.964844 3.136719c3.425781 11.148437 5.929687 22.625 7.4375 34.121093.96875 7.429688 1.375 15.816407-2.945313 21.691407-2.71875 3.664062-7.320312 6.28125-12.964844 7.386718-2.429687.472656-5.167968.707032-8.363281.707032zm0 0"/><path d="m461.894531 372.589844c-3.835937-16.421875-9.828125-31.554688-17.816406-44.96875l-1.34375-2.261719 13.523437-10.667969c1.214844-.960937 2.730469-2.152344 4.199219-3.527344l2.269531-2.117187 2.042969 2.335937c9.335938 10.703126 17.171875 22.558594 23.277344 35.230469 4.019531 8.324219 4.546875 14.3125 1.621094 18.3125-2.222657 3.070313-6.1875 4.464844-10.753907 5.84375l-16.292968 4.9375zm0 0"/><path d="m480.722656 497.445312c-1.226562 0-2.660156-.417968-4.4375-1.050781l-22.027344-7.734375 2.171876-3.222656c5.441406-8.054688 7.289062-18.878906 8.210937-26.316406.558594-4.527344 1.035156-9.148438 1.417969-13.726563l.238281-2.828125 3.414063.101563c.816406.023437 1.636718.050781 2.464843.050781 3.507813 0 6.417969-.25 9.15625-.785156 1.152344-.226563 2.375-.554688 3.734375-1l3.613282-1.175782.308593 3.789063c1.234375 15.371094.410157 30.773437-2.453125 45.785156-.882812 4.621094-2.34375 7.210938-4.464844 7.914063-.46875.140625-.886718.199218-1.347656.199218zm0 0"/><path d="m438.734375 319.371094c-5.429687-7.789063-11.570313-14.835938-18.25-20.9375-4.355469-3.972656-9.214844-7.769532-14.433594-11.289063l-3.027343-2.039062 2.585937-2.574219c2.003906-1.992188 3.707031-4.109375 5.570313-6.472656l.289062-.363282c1.492188-1.878906 2.902344-3.652343 4.558594-5.402343 3.058594-3.222657 5.351562-6.523438 6.816406-9.816407l1.453125-3.253906 2.960937 1.984375c10.851563 7.273438 20.621094 16.03125 29.042969 26.019531 5.320313 6.316407 7.28125 11.078126 6.351563 15.449219-.921875 4.316407-4.726563 7.609375-8.878906 10.878907l-13.21875 10.433593zm0 0"/><path d="m435.417969 492.65625c-6.898438 0-14.382813-2.683594-20.859375-5.203125l-82.980469-32.300781c-15.898437-6.1875-31.910156-13.445313-37.6875-27.984375-1.660156-4.1875-3.308594-10.183594-1.308594-19.507813l.1875-.867187.625-.625-.242187-.828125.214844-.828125c2.207031-7.894531 6.597656-17.15625 13.421874-28.308594l44.929688-73.382813c.460938-.761718.375-1.722656-.226562-2.390624-.371094-.40625-.921876-.652344-1.484376-.652344-.296874 0-.582031.066406-.855468.195312-31.472656 15.027344-62.171875 32.464844-91.25 51.832032-11.03125 7.34375-23.148438 16.296874-27.246094 29.644531-2.957031 9.605469-1.441406 20.914062 4.261719 31.839843 2.535156 4.855469 5.839843 9.675782 10.40625 15.160157l5.140625 6.175781-7.929688-1.296875c-3.546875-.578125-7.167968-1.246094-10.757812-1.980469-8.238282-1.683594-16.59375-3.792968-24.832032-6.265625-29.023437-8.730469-55.941406-21.667969-80.003906-38.453125-8.730468-6.09375-13.023437-10.628906-13.832031-19.929687-1.242187-14.222657 2.167969-27.75 9.851563-39.121094 10.167968-15.039063 25.949218-25.363281 36.9375-31.816406 39.167968-23.019531 84.347656-35.1875 130.65625-35.1875 17.269531 0 34.445312 1.742187 51.050781 5.175781 31.859375 6.582031 57.492187 18.574219 76.1875 35.640625 7.320312 6.683594 13.9375 14.480469 19.671875 23.175781l.300781.457032.117187.53125c.074219.320312.199219.59375.382813.832031.070313.082031.1875.199219.292969.28125l.453125.339843.296875.476563c8.566406 13.796875 14.910156 29.488281 18.84375 46.644531 4.507812 19.605469 5.933594 40.832032 4.371094 64.894532l-.023438.382812-.121094.367188c-.078125.226562-.117187.394531-.121094.503906-.011718.152344-.003906.285156.042969.53125l.082031.398437-.03125.410157c-.40625 5.59375-.972656 11.316406-1.675781 17.007812-2.230469 18.042969-7.480469 28.308594-16.519531 32.304688-2.59375 1.148437-5.53125 1.726562-8.730469 1.726562-.007812 0-.007812 0-.007812 0zm0 0"/><path d="m397.40625 281.78125c-15.5625-8.90625-34.066406-15.621094-55-19.957031-5.851562-1.203125-11.746094-2.203125-17.523438-2.972657l-2.757812-.367187.15625-2.773437s.023438-.300782.023438-.300782c.003906 0 .003906.023438.003906.050782-.328125-7.066407-.667969-14.355469.96875-21.292969 1.742187-7.40625 5.777344-13.335938 11.078125-16.265625 3.101562-1.71875 6.699219-2.550782 11-2.550782 5.0625 0 10.292969 1.203126 14.28125 2.253907 17.0625 4.511719 33.476562 11.230469 48.785156 19.976562 5.269531 3 10.351563 6.5 11.847656 11.71875 2.074219 7.132813-3.582031 14.488281-7.136719 18.242188-1.953124 2.058593-3.617187 4.164062-5.082031 6.023437-2.183593 2.757813-4.4375 5.609375-7.246093 7.925782l-1.601563 1.316406zm0 0"/><path d="m373.191406 132.3125c-2.417968-5.253906-6.28125-9.773438-8.976562-12.71875-7.527344-8.203125-15.949219-15.847656-25.035156-22.714844l-1.550782-1.171875.433594-1.894531c.945312-4.113281 3.542969-7.828125 6.054688-11.425781l.132812-.1875c.578125-.824219 1.152344-1.648438 1.710938-2.476563 1.703124-2.542968 3.019531-5.019531 3.898437-7.347656l1.121094-2.960938 2.894531 1.277344c9.320312 4.109375 18.253906 9.078125 26.554688 14.757813 6.101562 4.183593 13.339843 9.984375 15.140624 17.835937 1.425782 6.226563-.78125 13.644532-5.902343 19.839844-3.660157 4.417969-8.367188 7.882812-12.058594 10.40625l-2.933594 2.007812zm0 0"/><path d="m58.667969 224.355469c-4.546875 0-7.746094-.910157-9.789063-2.789063-2.917968-2.679687-6.015625-9.261718-4.214844-25.421875 1.171876-10.511719 4.746094-21.417969 10.929688-33.339843 27.824219-53.679688 82.34375-91.957032 142.277344-99.890626 7.851562-1.039062 15.859375-1.566406 23.804687-1.566406 52.433594 0 104.613281 22.785156 139.582031 60.953125 3.527344 3.847657 8.378907 9.699219 9.789063 16.054688l.0625.296875.007813.300781c.003906.160156.039062.363281.109374.59375l.074219.242187.03125.25c.1875 1.476563.171875 2.835938-.046875 4.164063-1.257812 8-8.464844 13.960937-23.367187 19.308594-26.777344 9.597656-54.304688 18.230469-81.8125 25.664062-49.738281 13.429688-100.925781 23.339844-152.132813 29.460938-12.46875 1.496093-25.296875 2.792969-38.128906 3.859375-1.613281.136718-3.472656.40625-5.4375.691406l-.339844.050781c-3.390625.496094-7.613281 1.117188-11.398437 1.117188zm0 0"/><path d="m330.789062 90.894531c-14.023437-9.453125-29.285156-17.074219-45.367187-22.652343l-2.539063-.882813.601563-2.617187c.839844-3.691407 2.996094-7.179688 5.28125-10.871094 2.511719-4.050782 5.105469-8.238282 5.859375-12.851563l.574219-3.503906 3.359375 1.152344c11.511718 3.949219 22.886718 8.167969 33.8125 12.542969 6.523437 2.601562 12.785156 5.792968 14.429687 11.484374 1.15625 3.980469-.242187 8.96875-4.164062 14.8125-.421875.621094-.835938 1.214844-1.253907 1.8125l-.53125.765626c-1.855468 2.644531-4.152343 5.914062-5.609374 9.460937l-1.398438 3.40625zm0 0"/><path d="m255.902344 255.992188c-.03125-.179688-.074219-.328126-.132813-.460938-1.925781-4.140625-4.125-8.875-4.949219-13.6875-.863281-5.007812-.03125-9.757812 2.289063-13.023438 4.5-6.328124 13.722656-7.339843 23.019531-7.492187l48.695313-.804687-2.375 4.488281c-1.351563 2.546875-2.386719 5.320312-3.074219 8.234375-1.613281 6.859375-1.441406 14.019531-1.101562 21.363281l.160156 3.449219-3.4375-.324219c-8.082032-.765625-16.316406-1.148437-24.484375-1.148437-10.394531 0-20.925781.625-31.300781 1.859374l-2.808594.335938zm0 0"/><path d="m276.023438 65.226562c-17.839844-5.222656-36.140626-7.871093-54.390626-7.871093l-4.449218.015625 7.605468-34.195313c.3125-1.40625.699219-3.15625.90625-4.984375l.359376-3.191406 43.019531 7.867188c4.410156.800781 9.417969 1.703124 13.574219 3.882812 4.324218 2.261719 7.320312 5.867188 8.015624 9.644531.984376 5.226563-2.058593 10.144531-5.28125 15.351563-2.234374 3.601562-4.527343 7.300781-5.617187 11.378906l-.792969 2.96875zm0 0"/><path d="m195.910156 270.378906c-.824218-3.875-2.886718-7.503906-4.710937-10.707031-.351563-.613281-.695313-1.222656-1.042969-1.84375-3.402344-6.160156-4.121094-11.023437-2.140625-14.464844 2.351563-4.125 8.101563-5.34375 13.304687-6.160156l46.191407-7.195313-.710938 4.121094c-.453125 2.628906-.429687 5.457032.070313 8.402344.828125 4.773438 2.777344 9.265625 4.539062 13.101562l1.652344 3.597657-3.90625.617187c-16.824219 2.667969-33.40625 6.949219-49.285156 12.730469l-3.242188 1.179687zm0 0"/><path d="m153.152344 67.589844c-.113282-.226563-.207032-.351563-.269532-.414063l-27.3125-29.355469c-2-2.160156-3.085937-3.625-3.160156-5.253906-.183594-3.199218 3.960938-5.535156 7.472656-6.929687 24.148438-9.597657 49.519532-15.796875 75.390626-18.414063 1.539062-.152344 2.988281-.230468 4.3125-.230468 5.785156 0 9.5625 1.515624 11.230468 4.515624 1.628906 2.90625.960938 6.761719.066406 10.789063l-7.839843 35.253906-2.261719.132813c-4.769531.28125-9.164062.691406-13.433594 1.257812-13.65625 1.8125-27.269531 5.21875-40.46875 10.121094l-2.523437.9375zm0 0"/><path d="m136.507812 303.804688c-4.113281-3.777344-8.367187-7.6875-11.054687-12.535157-1.074219-1.941406-4.320313-8.75-1.230469-14.917969 2.796875-5.617187 9.632813-8.222656 16.390625-10.40625 7.394531-2.398437 13.769531-4.742187 19.933594-7.011718l.664063-.242188c6.414062-2.367187 12.273437-4.511718 19.027343-6.734375l2.84375-.933593.941407 2.839843c.628906 1.898438 1.511718 3.878907 2.625 5.890625l1.070312 1.902344c2.140625 3.765625 4.363281 7.667969 4.535156 11.671875l.089844 2.105469-1.949219.800781c-11.253906 4.605469-22.195312 10.015625-32.53125 16.078125-6.816406 4.003906-12.375 7.707031-17.492187 11.660156l-2.003906 1.542969zm0 0"/><path d="m97.074219 100.144531c-2.738281-3.929687-6.84375-6.773437-10.464844-9.28125l-.148437-.101562c-1.125-.773438-2.1875-1.507813-3.234376-2.285157-2.847656-2.132812-9.339843-7.765624-8.246093-14.136718.867187-5.085938 6.148437-8.554688 11.03125-11.402344l37.226562-21.753906 27.9375 30.027344-3.894531 1.691406c-16.421875 7.109375-31.847656 16.484375-45.855469 27.855468l-2.503906 2.03125zm0 0"/><path d="m105.109375 349.492188c-2.476563-2.449219-5.222656-4.472657-8.554687-6.867188-1.324219-.960938-2.6875-1.945312-4.007813-2.960938-4.136719-3.203124-10.867187-9.675781-9.566406-17.074218.738281-4.179688 3.960937-7.691406 6.925781-10.652344 8.070312-8.121094 17.027344-15.535156 26.617188-22.03125l2.960937-2.007812 1.460937 3.261718c.339844.761719.671876 1.429688 1.007813 2.03125 2.742187 4.972656 6.882813 8.988282 10.886719 12.679688l2.398437 2.210937-2.402343 2.207031c-5.269532 4.832032-9.707032 9.894532-13.191407 15.050782-4.644531 6.886718-7.835937 14.496094-9.488281 22.617187l-1.101562 5.433594zm0 0"/><path d="m53.371094 152.1875c-.101563-.0625-.238282-.128906-.410156-.191406-5.25-1.910156-10.746094-3.90625-15.160157-7.410156-3.601562-2.847657-7.335937-7.867188-7.007812-13.40625.339843-5.722657 4.664062-10.53125 9.453125-15.363282l32.398437-32.640625 2.097657 2.6875c1.585937 2.03125 3.636718 3.988281 6.101562 5.816407 1.167969.867187 2.359375 1.699218 3.476562 2.464843 3.875 2.6875 7.867188 5.457031 10.117188 9.324219l1.230469 2.109375-1.816407 1.632813c-14.398437 12.933593-26.621093 27.726562-36.34375 43.957031l-1.554687 2.601562zm0 0"/><path d="m33.664062 217c-3.601562 0-7.824218-.136719-11.851562-1.140625-5.414062-1.363281-9.820312-4.304687-12.09375-8.070313-3.082031-5.140624-2.953125-12.191406.402344-22.195312 4.601562-13.730469 11.171875-26.652344 19.53125-38.40625l1.933594-2.71875 2.5 2.210938c.398437.355468.804687.707031 1.230468 1.042968 4.886719 3.871094 10.902344 6.070313 15.738282 7.839844l3.285156 1.199219-1.6875 3.0625c-.210938.382812-.421875.769531-.625 1.152343-6.398438 12.332032-10.109375 23.699219-11.339844 34.734376-.78125 7.027343-.742188 12.992187.117188 17.71875l.644531 3.535156h-3.757813l-.105468-.007813c-1.296876.019531-2.609376.042969-3.921876.042969zm0 0"/></g><path d="m301.863281 329.328125-1.785156 1.019531-.003906-.019531-3.660157 2.140625c-10.820312 6.324219-21.78125 13.128906-32.574218 20.222656l-2.453125 1.609375-.007813-.019531-2.566406 1.726562c-9.855469 6.628907-20.671875 14.699219-24.332031 26.617188-3.566407 11.597656.96875 23.03125 3.984375 28.804688 1.160156 2.238281 2.554687 4.535156 4.257812 7.015624l1.523438 2.222657 2.371094-1.277344c.371093-.199219.730468-.417969 1.097656-.628906-.128906.074219-.253906.160156-.382813.234375l-3.050781 1.722656 2.171875 2.75c3.285156 4.164062 6.824219 8.066406 10.753906 12.359375.191407.207031.328125.4375.40625.671875l.28125.828125.683594.550781c1.085937.871094 2.125 1.769532 3.097656 2.621094 1.867188 1.628906 3.800781 3.316406 5.867188 4.679688 4.066406 2.65625 8.976562 4.0625 14.199219 4.0625 5.570312 0 11.035156-1.644532 15.382812-4.628907l2.898438-1.988281-2.421876-2.550781c-3.34375-3.519531-5.773437-7.261719-7.429687-11.433594-2.835937-7.125-3.199219-14.832031-1.109375-23.554687l.527344-2.207032-1.976563-1.105468c-.128906-.070313-.261719-.132813-.386719-.199219l2.355469 1.171875 1.105469-3.25c3.144531-9.257813 8.433594-18.425782 12.683594-25.375l2.726562-4.433594-2.394531-1.363281 2.410156 1.316406 38.710938-63.210937-9.441407 4.785156c-11.058593 5.597656-22.332031 11.691406-33.519531 18.113281zm.070313 37.851563c-.226563-.164063-.445313-.332032-.660156-.507813.214843.175781.433593.34375.660156.507813zm-34.074219.222656 1.808594.25c.519531.070312 1.042969.117187 1.570312.15625l-3.171875-.136719.667969 3.144531c-.402344-1.773437-.914063-3.519531-1.523437-5.230468.011718.035156.027343.066406.039062.09375zm2.011719 13.609375v.425781c0-.144531 0-.285156 0-.425781zm-.070313 2.425781c-.007812.125-.011719.246094-.019531.371094.007812-.125.011719-.246094.019531-.371094zm-.214843 2.5c-.007813.066406-.011719.136719-.019532.207031.007813-.070312.015625-.140625.019532-.207031zm.042968-9.691406c.007813.101562.019532.199218.027344.300781-.011719-.101563-.019531-.199219-.027344-.300781zm.183594 2.371094c.003906.136718.011719.269531.015625.40625-.003906-.136719-.011719-.269532-.015625-.40625zm-19.703125 38.65625c-.105469.074218-.214844.140624-.320313.210937.105469-.070313.214844-.136719.320313-.210937zm16.804687-17.851563-1.429687.347656-.28125.523438c.738281-1.445313 1.398437-2.925781 1.96875-4.4375l-1.171875 3.371093 4.242188-.566406c-1.128907.179688-2.238282.429688-3.328126.761719zm28.574219-41.777344-2.480469 2.261719c.6875-.664062 1.339844-1.363281 1.953126-2.101562.394531-.472657.761718-.960938 1.121093-1.457032l-.007812.011719v.90625l.011719 1.347656.234374.214844c.210938.925781.535157 1.828125.941407 2.699219-.019531-.046875-.046875-.089844-.066407-.132813zm1.984375 4.296875c.136719.269532.28125.535156.4375.800782-.15625-.261719-.296875-.53125-.4375-.800782zm.710938 1.246094c.171875.265625.351562.523438.539062.777344-.1875-.253906-.367187-.511719-.539062-.777344zm.796875 1.136719c.265625.339843.546875.667969.839843.984375-.292968-.316406-.574218-.644532-.839843-.984375zm1.226562 1.371093c.195313.195313.394531.390626.601563.574219-.207032-.183593-.40625-.378906-.601563-.574219zm3.195313 2.457032c-.351563-.199219-.691406-.414063-1.023438-.640625.382813.261719.777344.507812 1.183594.730469zm0 0" fill="#c67045"/><path d="m311.316406 479.605469c-4.558594-4.351563-9.539062-6.558594-14.800781-6.558594-2.714844 0-5.472656.59375-8.199219 1.761719-2.195312.941406-4.398437 2.265625-6.542968 3.941406-3.648438 2.839844-7.574219 8.242188-6.628907 14.125.726563 4.484375 4.421875 8.652344 9.417969 10.613281 2.550781 1.003907 5.503906 1.511719 8.769531 1.511719 2.117188 0 4.410157-.214844 6.804688-.640625 4.039062-.710937 13.675781-3.1875 15.910156-10.820313 1.597656-5.453124-1.550781-10.914062-4.730469-13.933593zm0 0" fill="#c67045"/><path d="m244.527344 455.570312c-1.003906-.242187-2.105469-.363281-3.273438-.363281-6.441406 0-14.855468 3.800781-20.457031 9.234375-2.257813 2.191406-7.371094 7.972656-5.996094 14.378906 1.511719 7.121094 9.511719 10.277344 11.929688 11.078126 2.941406.964843 5.960937 1.453124 8.972656 1.453124 4.582031 0 8.871094-1.140624 12.410156-3.289062 7.242188-4.398438 9.5-12.742188 8.527344-19.0625-.390625-2.542969-2.417969-11.039062-12.113281-13.429688zm0 0" fill="#c67045"/><path d="m114.800781 225.589844c51.519531-6.15625 103.039063-16.132813 153.136719-29.664063 27.710938-7.480469 55.417969-16.171875 82.347656-25.824219 10.921875-3.917968 25.703125-10.75 27.921875-24.824218.207031-1.316406.277344-2.609375.246094-3.886719 5.742187-3.753906 11.855469-8.058594 16.601563-13.792969 6.507812-7.859375 9.25-17.53125 7.332031-25.875-2.34375-10.21875-10.855469-17.148437-18.003907-22.046875-9.511718-6.507812-19.714843-12.050781-30.34375-16.519531-.117187-.8125-.285156-1.613281-.511718-2.40625-2.8125-9.746094-13.445313-13.996094-18.554688-16.039062-11.785156-4.714844-23.851562-9.175782-35.867187-13.257813-.910157-.3125-1.847657-.328125-2.71875-.128906-1.898438-4.382813-5.558594-8.191407-10.488281-10.773438-5.074219-2.65625-10.648438-3.675781-15.566407-4.574219l-41.835937-7.644531c-.496094-.089843-.980469-.082031-1.457032-.027343-.035156-.066407-.066406-.132813-.101562-.199219-3.535156-6.351563-11.058594-8.992188-22.371094-7.84375-26.511718 2.683593-52.507812 9.03125-77.269531 18.871093-10.203125 4.050782-12.09375 9.75-11.882813 13.816407.078126 1.511719.476563 2.875 1.03125 4.101562l-33.964843 19.839844c-4.511719 2.636719-12.902344 7.539063-14.398438 16.265625-.273437 1.589844-.289062 3.179688-.082031 4.761719l-32.71875 32.96875c-4.359375 4.390625-10.945312 11.027343-11.472656 19.878906-.195313 3.296875.515625 6.648437 1.992187 9.804687-9.65625 13.023438-17.164062 27.40625-22.320312 42.800782-2.550781 7.613281-5.300781 18.800781.238281 28.015625 3.265625 5.433593 9.085938 9.429687 16.390625 11.257812 4.546875 1.136719 9.210937 1.355469 13.582031 1.355469 1.402344 0 2.777344-.023438 4.109375-.042969 1.207031-.023437 2.296875-.488281 3.152344-1.214843.902344 1.515624 1.960937 2.847656 3.1875 3.976562 3.898437 3.582031 9.253906 4.617188 14.695313 4.617188 4.25 0 8.554687-.628907 12.257812-1.171876 1.976562-.289062 3.84375-.566406 5.332031-.691406 12.757813-1.054687 25.667969-2.363281 38.375-3.882812zm233.644531-144.1875c1.863282-2.773438 3.261719-5.421875 4.222657-7.960938 9.109375 4.011719 17.859375 8.871094 26.066406 14.488282 5.648437 3.867187 12.335937 9.183593 13.910156 16.027343 1.222657 5.332031-.757812 11.785157-5.289062 17.261719-3.148438 3.800781-7.199219 6.941406-11.441407 9.839844-2.445312-5.316406-6.226562-9.925782-9.492187-13.488282-7.769531-8.476562-16.304687-16.1875-25.433594-23.085937.8125-3.515625 3.128907-6.851563 5.589844-10.371094.632813-.902343 1.261719-1.804687 1.867187-2.710937zm-50.855468-39.894532c11.285156 3.871094 22.601562 8.0625 33.667968 12.484376 5.816407 2.328124 11.378907 5.09375 12.660157 9.527343.894531 3.101563-.378907 7.242188-3.777344 12.3125-.570313.851563-1.164063 1.695313-1.757813 2.542969-2.09375 2.996094-4.375 6.285156-5.914062 10.035156-14.273438-9.628906-29.804688-17.359375-46.0625-23.007812.734375-3.199219 2.773438-6.5 4.910156-9.953125 2.59375-4.179688 5.417969-8.765625 6.273438-13.941407zm-69.871094-17.683593c.339844-1.523438.742188-3.335938.953125-5.296875l39.863281 7.285156c4.421875.808594 8.996094 1.644531 12.726563 3.597656 3.511719 1.835938 5.925781 4.648438 6.457031 7.519532.765625 4.105468-1.859375 8.347656-4.902344 13.253906-2.269531 3.664062-4.746094 7.667968-5.953125 12.160156-18.132812-5.304688-37.015625-8.054688-55.941406-7.984375zm-96.730469 4.597656c23.902344-9.496094 48.996094-15.625 74.585938-18.214844 4.789062-.484375 10.867187-.398437 12.625 2.757813 1.113281 2.007812.519531 5.253906-.242188 8.6875l-7.355469 33.039062c-4.558593.265625-9.109374.675782-13.648437 1.277344-14.082031 1.867188-27.867187 5.359375-41.117187 10.273438-.203126-.398438-.445313-.78125-.765626-1.125l-27.300781-29.335938c-.753906-.8125-2.324219-2.5-2.367187-3.351562-.035156-.703126 1.421875-2.351563 5.585937-4.007813zm-53.050781 46.425781c.652344-3.8125 5.292969-6.8125 9.589844-9.320312l35.152344-20.539063 23.410156 25.160157c-16.714844 7.238281-32.410156 16.800781-46.554688 28.277343-3.035156-4.355469-7.351562-7.347656-11.222656-10.027343-1.15625-.800782-2.246094-1.554688-3.296875-2.335938-1.871094-1.390625-7.921875-6.3125-7.078125-11.214844zm-44.148438 56.515625c.28125-4.699219 4.222657-9.035156 8.589844-13.433593l29.992188-30.21875c1.746094 2.226562 3.976562 4.371093 6.683594 6.378906 1.183593.878906 2.394531 1.71875 3.566406 2.53125 3.765625 2.605468 7.3125 5.078125 9.230468 8.351562-14.40625 12.945313-26.933593 27.984375-36.917968 44.65625-.277344-.167968-.570313-.316406-.890625-.429687-5.089844-1.855469-10.355469-3.777344-14.378907-6.960938-3.011718-2.386719-6.136718-6.496093-5.875-10.875zm3.914063 64.011719c-.820313 7.371094-.765625 13.539062.15625 18.59375-.046875 0-.09375-.011719-.140625-.011719-.027344 0-.054688 0-.085938 0-5.09375.082031-10.363281.167969-15.097656-1.015625-4.648437-1.160156-8.382812-3.605468-10.246094-6.707031-2.59375-4.316406-2.378906-10.570313.675782-19.6875 4.507812-13.457031 10.933594-26.085937 19.128906-37.625.441406.394531.890625.78125 1.363281 1.15625 5.101563 4.039063 11.148438 6.320313 16.566407 8.296875-.210938.402344-.4375.796875-.648438 1.203125-6.585938 12.703125-10.402344 24.410156-11.671875 35.796875zm31.9375 24.894531c-6.457031.949219-15.300781 2.246094-18.730469-.910156-1.972656-1.8125-5.015625-7.191406-3.269531-22.878906 1.132813-10.140625 4.601563-20.707031 10.613281-32.296875 27.382813-52.820313 81.035156-90.484375 140.011719-98.300782 7.78125-1.03125 15.597656-1.535156 23.414063-1.535156 51.441406 0 102.476562 21.902344 137.367187 59.980469 3.523437 3.839844 7.851563 9.167969 9.074219 14.679687.007812.476563.089844.949219.238281 1.414063.132813 1.097656.144531 2.199219-.03125 3.296875-1.074219 6.808594-7.679687 12.042969-21.417969 16.96875-26.679687 9.5625-54.128906 18.171875-81.582031 25.585938-49.628906 13.402343-100.675781 23.289062-151.714844 29.386718-12.585937 1.503906-25.378906 2.800782-38.015625 3.851563-1.800781.148437-3.820312.445312-5.957031.757812zm0 0"/><path d="m503.421875 408.019531c-1.636719-12.464843-4.378906-24.859375-8.160156-36.84375-.144531-.460937-.367188-.867187-.621094-1.25.238281-.285156.472656-.578125.695313-.882812 4.507812-6.199219 4.175781-14.765625-.980469-25.464844-6.75-13.992187-15.433594-26.917969-25.796875-38.476563.394531-.941406.71875-1.925781.941406-2.96875 1.84375-8.664062-3.59375-16.375-7.847656-21.417968-9.761719-11.578125-21.203125-21.507813-34-29.578125-.089844-1.285157-.296875-2.554688-.652344-3.789063-2.203125-7.621094-8.871094-12.289062-15.101562-15.847656-15.84375-9.050781-32.828126-16-50.476563-20.660156-9.070313-2.390625-20.730469-4.445313-30.460937.941406-1.453126.800781-2.824219 1.769531-4.117188 2.871094-.855469-.6875-1.925781-1.113282-3.105469-1.113282-.027343 0-.058593 0-.085937 0l-47.640625.792969c-10.527344.175781-21.082031 1.4375-27.519531 9.050781-.75-.261718-1.570313-.371093-2.414063-.238281l-45.835937 7.144531c-4.917969.765626-14.070313 2.195313-18.308594 9.597657-.859375 1.5-1.4375 3.101562-1.75 4.796875-.226563.042968-.453125.074218-.679688.148437-7.71875 2.5-14.324218 4.933594-20.714844 7.289063-6.296874 2.320312-12.808593 4.722656-20.335937 7.160156-6.042969 1.957031-16.15625 5.234375-20.503906 13.957031-1.3125 2.636719-1.972657 5.589844-2.003907 8.664063-11.1875 7.226562-21.621093 15.664062-31.011718 25.101562-3.984375 4.003906-7.820313 8.519532-8.847656 14.375-1.4375 8.179688 2.886718 16.640625 12.171874 23.820313 1.394532 1.078125 2.828126 2.109375 4.214844 3.105469 4.539063 3.265624 8.828125 6.351562 11.101563 10.539062.535156.980469 1.347656 1.703125 2.289062 2.140625 0 2.089844.085938 4.195313.269531 6.316406 1.148438 13.125 8.601563 19.347657 16.804688 25.066407 24.667969 17.210937 52.253906 30.472656 81.992188 39.417968 8.371093 2.515625 16.933593 4.675782 25.445312 6.417969 4.082031.835937 8.238281 1.59375 12.355469 2.25.886719.144531 2.082031.207031 3.734375.289063 1.195312.0625 3.519531.183593 5.160156.382812.277344.347656.582031.675781.960938.949219 1.503906 1.097656 2.953124 2.359375 4.484374 3.695312 2.054688 1.792969 4.175782 3.648438 6.636719 5.261719 5.359375 3.507812 11.710938 5.226562 18.070313 5.226562 7.722656 0 15.453125-2.535156 21.441406-7.457031 7.773438 5.503907 17.035156 9.453125 25.820312 12.871094l82.980469 32.300781c7.640625 2.976563 15.582031 5.714844 23.398438 5.714844 3.902343-.003906 7.773437-.683594 11.558593-2.355469 1.628907-.71875 3.117188-1.578125 4.496094-2.542969.421875.332032.886719.617188 1.421875.804688l21.078125 7.410156c1.738282.609375 4.101563 1.441406 6.734375 1.441406 1.085938 0 2.222657-.140624 3.375-.5 7.214844-2.234374 8.804688-10.566406 9.324219-13.304687 3.203125-16.789063 3.972656-33.921875 2.289062-50.925781-.039062-.371094-.121093-.722656-.230468-1.0625 1.394531-1.171875 2.648437-2.460938 3.695312-3.882813 5.8125-7.878906 5.414063-17.945312 4.261719-26.75zm-40.917969-94.664062c9.121094 10.453125 16.808594 22.054687 22.839844 34.566406 3.4375 7.121094 4.078125 12.25 1.90625 15.238281-1.6875 2.320313-5.167969 3.519532-9.207031 4.742188l-13.230469 4c-3.929688-16.808594-10.070312-32.226563-18.160156-45.8125l11.460937-9.039063c1.320313-1.042969 2.863281-2.265625 4.390625-3.695312zm-36.917968-51.660157c10.617187 7.117188 20.160156 15.664063 28.417968 25.464844 4.609375 5.464844 6.421875 9.558594 5.710938 12.886719-.707032 3.332031-4.089844 6.230469-7.792969 9.152344l-10.71875 8.457031c-5.527344-7.917969-11.765625-15.113281-18.691406-21.433594-4.546875-4.148437-9.488281-7.996094-14.785157-11.566406 2.175782-2.160156 4.015626-4.472656 5.8125-6.742188 1.542969-1.953124 3-3.792968 4.671876-5.554687 3.320312-3.503906 5.785156-7.097656 7.375-10.664063zm-99.394532-26.839843c1.554688-6.585938 5.058594-11.808594 9.609375-14.328125 6.582031-3.640625 15.359375-2.054688 23.070313-.015625 16.804687 4.433593 32.976562 11.050781 48.066406 19.671875 4.714844 2.695312 9.246094 5.765625 10.453125 9.941406 1.652344 5.707031-3.324219 12.070312-6.4375 15.351562-1.976563 2.085938-3.644531 4.191407-5.257813 6.230469-2.269531 2.871094-4.292968 5.410157-6.796874 7.464844-15.855469-9.066406-34.535157-15.867187-55.878907-20.28125-5.875-1.214844-11.792969-2.21875-17.742187-3.015625.015625-.1875.042968-.371094.03125-.566406-.316406-6.863282-.648438-13.960938.882812-20.453125zm-70.628906-4.300781c3.714844-5.230469 12.101562-6.082032 20.613281-6.226563l43.621094-.722656c-1.441406 2.722656-2.578125 5.730469-3.335937 8.953125-1.765626 7.488281-1.503907 15.246094-1.1875 22.191406-18.742188-1.769531-37.691407-1.519531-56.410157.714844-.078125-.390625-.183593-.777344-.359375-1.152344-1.953125-4.226562-3.976562-8.601562-4.726562-12.96875-.730469-4.234375-.078125-8.167969 1.785156-10.789062zm-64.949219 14.300781c1.625-2.839844 6.328125-3.929688 11.167969-4.683594l42.0625-6.558594c-.503906 2.957031-.488281 6.140625.074219 9.425781.863281 5.015626 2.847656 9.667969 4.765625 13.851563-16.980469 2.6875-33.703125 6.992187-49.839844 12.871094-.902344-4.277344-3.058594-8.089844-5.035156-11.570313-.347656-.609375-.691406-1.21875-1.027344-1.824218-1.964844-3.546876-3.9375-8.425782-2.167969-11.511719zm-63.710937 32.84375c2.28125-4.582031 8.480468-6.910157 14.632812-8.90625 7.71875-2.5 14.324219-4.933594 20.710938-7.289063 5.898437-2.171875 11.996094-4.414062 18.925781-6.695312.679687 2.046875 1.625 4.179687 2.859375 6.402344.351562.636718.714844 1.273437 1.078125 1.917968 2.0625 3.632813 4.003906 7.082032 4.140625 10.328125-11.339844 4.640625-22.347656 10.066407-32.902344 16.269531-5.230468 3.074219-11.503906 7-17.816406 11.867188-3.9375-3.617188-8-7.355469-10.453125-11.777344-1.832031-3.320312-3.109375-8.242187-1.175781-12.117187zm-19.6875 69.660156c-2.734375-2.714844-5.84375-4.972656-8.902344-7.171875-1.378906-.992188-2.679688-1.929688-3.9375-2.898438-2.890625-2.238281-9.507812-8.097656-8.4375-14.179687.574219-3.289063 3.441406-6.398437 6.085938-9.054687 7.996093-8.035157 16.789062-15.304688 26.1875-21.667969.339843.765625.707031 1.523437 1.121093 2.273437 3 5.417969 7.410157 9.664063 11.476563 13.414063-4.953125 4.542969-9.679688 9.710937-13.648438 15.585937-4.886718 7.234375-8.222656 15.234375-9.945312 23.699219zm203.984375 8.226563c-1.050781 1.722656-2.105469 3.445312-3.160157 5.167968-4.269531-1.816406-7.992187-4.925781-10.507812-8.824218-2.589844-4.015626-3.910156-8.855469-3.710938-13.632813.003907-.097656-.015624-.191406-.015624-.289063 5.070312-3.132812 10.050781-6.402343 15.277343-9.335937 4.640625-2.601563 9.300781-5.167969 13.996094-7.675781 2.261719-1.210938 4.53125-2.410156 6.808594-3.59375 1.488281-.773438 6.003906-2.144532 6.847656-3.519532-8.511719 13.902344-17.023437 27.800782-25.535156 41.703126zm-27.082031-11.953126c.652343 4.867188 2.351562 9.597657 5.011718 13.71875 3.324219 5.148438 8.121094 9.339844 13.648438 11.992188-.652344 1.070312-1.308594 2.136719-1.960938 3.207031-3.339844 5.453125-6.769531 11.316407-9.605468 17.429688-4.054688-.289063-8.140626-.136719-12.179688.410156.636719-12.972656-3.507812-26.269531-11.425781-36.5625 3.472656-2.257813 6.945312-4.507813 10.457031-6.714844 1.964844-1.238281 4.007812-2.363281 6.054688-3.480469zm-24.925782 15.679688c7.390625 9.234375 10.988282 21.597656 9.640625 33.339844-10.539062 3.269531-20.285156 9.25-27.761719 17.289062-2.808593-5.402344-6.957031-15.925781-3.726562-26.433594 3.328125-10.820312 12.726562-18.160156 21.847656-24.195312zm-10.128906 64.042969c-1.207031-1.023438-2.222656-2.3125-3.117188-3.726563 9.792969-12.339844 25.621094-19.875 41.382813-19.796875-1.527344 4.808594-2.496094 9.714844-2.613281 14.65625-10.671875 2.417969-20.503906 8.496094-27.496094 16.917969-2.605469-2.828125-5.207031-5.542969-8.15625-8.050781zm20.125 19.3125c-1.703125-1.121094-3.324219-2.5-5.007812-3.964844 5.375-6.902344 13.097656-11.980469 21.5625-14.183594.414062 1.746094.953124 3.488281 1.644531 5.230469 1.890625 4.757812 4.664062 8.835938 8.039062 12.386719-7.558593 5.195312-18.5625 5.554687-26.238281.53125zm173.75 45.515625c-7.878906 3.480468-17.800781.164062-27.289062-3.527344l-82.980469-32.300781c-15.289063-5.949219-30.660157-12.882813-35.988281-26.300781-6.65625-16.757813 4.167968-34.402344 12.664062-48.285157l44.929688-73.382812c1.15625-1.886719.933593-4.3125-.550782-5.957031-.972656-1.078126-2.332031-1.652344-3.71875-1.652344-.726562 0-1.460937.160156-2.148437.488281-31.625 15.101563-62.449219 32.609375-91.617188 52.039063-11.464843 7.632812-24.0625 16.976562-28.453125 31.265624-3.1875 10.363282-1.601562 22.476563 4.46875 34.105469 2.996094 5.730469 6.742188 10.867188 10.761719 15.695313-3.550781-.582032-7.121094-1.242188-10.636719-1.960938-8.21875-1.683594-16.484375-3.769531-24.570312-6.199218-28.71875-8.640626-55.351563-21.441407-79.152344-38.042969-8.109375-5.65625-11.84375-9.558594-12.558594-17.734375-1.183594-13.519532 2.050782-26.375 9.347656-37.171875 9.824219-14.53125 25.230469-24.601563 35.96875-30.914063 53.429688-31.398437 118.886719-42.210937 179.578126-29.664062 31.328124 6.476562 56.484374 18.226562 74.777343 34.925781 7.195313 6.570313 13.617188 14.152344 19.183594 22.609375.160156.707031.457031 1.390625.9375 1.996094.257813.328125.550781.609375.863281.855468 8.316406 13.375 14.582032 28.777344 18.476563 45.726563 4.421875 19.242187 5.839843 40.339844 4.300781 64.035156-.144531.417969-.25.855469-.277344 1.316407-.023437.433593.027344.847656.105469 1.253906-.402344 5.480468-.953125 11.09375-1.667969 16.859375-2.089844 16.890625-6.777344 26.398437-14.753906 29.921875zm40.648438.585937c-.9375 4.917969-2.214844 5.550781-2.460938 5.625-.792969.246094-2.769531-.449219-3.835938-.824219l-18.367187-6.453124c5.582031-8.273438 7.632813-19.046876 8.695313-27.625.582031-4.710938 1.050781-9.316407 1.433593-13.847657 1.035157.035157 2.074219.074219 3.121094.074219 3.203125 0 6.449219-.203125 9.730469-.84375 1.417968-.277344 2.773437-.65625 4.089844-1.085938 1.210937 15.035157.417968 30.152344-2.40625 44.980469zm7.527343-59.933593c-2.257812 3.054687-6.203125 5.265624-11.121093 6.222656-3.273438.640625-6.75.714844-10.246094.613281 1.023437-19.5.054687-37.339844-2.90625-53.933594l14.101562-4.265625c1.535156-.464844 3.359375-1.019531 5.238282-1.785156 3.367187 10.960938 5.835937 22.265625 7.324218 33.632812.898438 6.832032 1.3125 14.492188-2.390625 19.515626zm0 0"/><path d="m246.214844 448.78125c-10.109375-2.488281-22.890625 3.460938-30.289063 10.632812-6.640625 6.433594-9.472656 13.847657-7.972656 20.871094 1.554687 7.277344 7.757813 13.355469 16.589844 16.257813 3.65625 1.203125 7.433593 1.796875 11.132812 1.796875 5.800781 0 11.414063-1.457032 16.082031-4.296875 8.648438-5.261719 13.390626-15.753907 11.800782-26.105469-1.484375-9.683594-7.96875-16.84375-17.34375-19.15625zm.347656 36.71875c-5.1875 3.152344-12.25 3.730469-18.894531 1.542969-4.183594-1.375-8.988281-4.417969-9.933594-8.84375-1.054687-4.945313 3.25-9.761719 5.148437-11.605469 5.164063-5.003906 12.8125-8.386719 18.371094-8.386719.917969 0 1.78125.089844 2.566406.285157 7.664063 1.890624 9.445313 8.296874 9.855469 10.964843.820313 5.332031-1.0625 12.359375-7.113281 16.042969zm0 0"/><path d="m277.476562 473.222656c-6.90625 5.367188-10.445312 13.328125-9.238281 20.777344 1.132813 6.984375 6.40625 13.117188 13.761719 16.003906 3.382812 1.328125 7.175781 1.992188 11.339844 1.992188 2.539062 0 5.214844-.246094 8.019531-.742188 11.25-1.988281 19.050781-7.726562 21.398437-15.742187 2.046876-6.976563-.550781-15.210938-6.617187-20.980469-11.363281-10.8125-25.816406-11.300781-38.664063-1.308594zm35.6875 19.476563c-1.8125 6.175781-10.824218 8.226562-13.542968 8.707031-5.5625.984375-10.261719.742188-13.964844-.710938-4.023438-1.578124-6.984375-4.835937-7.546875-8.292968-.695313-4.300782 2.261719-8.765625 5.503906-11.285156 3.464844-2.695313 7.933594-5.074219 12.898438-5.074219 4.007812 0 8.34375 1.546875 12.738281 5.730469 2.769531 2.636718 5.050781 7.035156 3.914062 10.925781zm0 0"/></svg>